<?xml version="1.0" encoding="utf-8"?>
<!-- Generator: Adobe Illustrator 21.0.2, SVG Export Plug-In . SVG Version: 6.00 Build 0)  -->
<svg version="1.1" id="Layer_1" xmlns="http://www.w3.org/2000/svg" xmlns:xlink="http://www.w3.org/1999/xlink" x="0px" y="0px"
	 viewBox="0 0 750.3 190.3" style="enable-background:new 0 0 750.3 190.3;" xml:space="preserve">
<style type="text/css">
	.st0{fill:#084887;}
</style>
<g>
	<path class="st0" d="M102.8,95.7"/>
	<path class="st0" d="M105.2,60.4"/>
	<path class="st0" d="M60.5,92.5"/>
	<path class="st0" d="M117.7,66"/>
	<path class="st0" d="M118.3,67.3"/>
	<path class="st0" d="M102.8,95.8"/>
	<path class="st0" d="M105.2,60.4"/>
	<path class="st0" d="M60.5,92.6"/>
	<path class="st0" d="M117.7,66"/>
	<path class="st0" d="M118.3,67.3"/>
	<path class="st0" d="M117.7,32.9c23.4,0.1,32.8,9.6,32.8,9.6c-0.3-0.5-0.8-1.6-0.8-1.6c-8.8-12.4-25.1-20.7-44.1-20.7
		c-26,0-47.4,15.6-50.6,35.7c0,0,2.3,5.6-2.2,9.6c0,0-7.3,4.1-16,3.7v5.2h36.5c0,0-1.3-2.8-1.1-8.4C72.6,47.8,92.5,32.9,117.7,32.9z
		 M76.4,67.7c0,2.4,0.2,4.7,1.1,6.9h89.4v-5.7H163l-0.6-0.1c0-0.4,0-0.7,0-1.1c0-17-19.3-30.8-43-30.8
		C95.7,36.8,76.4,50.6,76.4,67.7z M102.5,0.1C48.1-2.2,2.3,38.5,0.1,91s40,96.9,94.3,99.2s100.2-38.4,102.4-90.9
		C199,46.8,156.8,2.4,102.5,0.1z M174.9,93.1c-1.1,27.2-15.4,50.7-36.4,64.7v-31v-1.4c-0.3-3.8,4.4-3.8,4.4-3.8
		c4.8-0.9,7.1-3.8,12.3-12.4c4.8-8,4.3-19.8,4.5-20.9c0.4-2-0.1-9.9-0.1-9.9H51v3.9l-12.6,27.1v4.2h11v25.7
		c-0.7,9.4,11,10.8,16.1,9.9c6.4-1.2,7.1,6.4,7.1,6.4l-0.8,13.3c-36.3-9.7-62.3-43.6-60.7-82.7C12.9,40.9,51.2,5.8,96.4,7.7
		C141.7,9.6,176.8,47.9,174.9,93.1z M65.1,92.6c0,1.6-2.1,2.9-4.7,2.9c-2.6,0-4.7-1.3-4.7-2.9s2.1-2.9,4.7-2.9S65.1,91,65.1,92.6z"
		/>
	<path class="st0" d="M138.9,46.3"/>
	<path class="st0" d="M139.4,47.8"/>
	<path class="st0" d="M138.9,46.4"/>
	<path class="st0" d="M139.4,47.8"/>
	<g>
		<path class="st0" d="M277.3,24.4h37v95.4c0,8-1.3,14.4-3.8,19.4c-2.5,5.2-6.6,9.9-12.4,14.1c-7.8,5.6-17.3,8.4-28.5,8.4
			c-12.7,0-23.3-3.1-31.9-9.3c-10.9-7.9-16.3-20.4-16.3-37.7V24.4h37v87.9c0,5.9,0.7,10.2,2.2,12.6c1.5,2.5,3.9,3.7,7.3,3.7
			c3.6,0,6-1.1,7.4-3.4c1.4-2.4,2-6.7,2-12.8L277.3,24.4L277.3,24.4z"/>
		<path class="st0" d="M434.3,93.5c0,20.2-4.8,36.6-14.3,49.2c-9.5,12.6-21.8,18.9-37,18.9c-13.5,0-25.1-4.8-34.7-14.5
			c-12.2-12.2-18.2-30.6-18.2-55.1c0-23.4,6.3-41.4,19-53.8c9.4-9.2,20.6-13.8,33.5-13.8c15.8,0,28.4,6.2,37.8,18.7
			C429.6,55.6,434.3,72.3,434.3,93.5z M395.8,93.8c0-24.3-4.4-36.5-13.1-36.5c-4.4,0-7.9,3.2-10.5,9.6c-2.5,5.9-3.8,14.6-3.8,26.1
			c0,11.3,1.2,20.1,3.6,26.3c2.4,6.2,5.7,9.3,10,9.3c4.4,0,7.8-3.1,10.1-9.2C394.6,113.3,395.8,104.7,395.8,93.8z"/>
		<path class="st0" d="M527.3,119.8l-2.1,37.2c-8.2,3-15.6,4.6-22.1,4.6c-15.3,0-28.2-5.4-38.7-16.3c-11.7-12.2-17.6-29.4-17.6-51.7
			c0-20.9,5.5-37.6,16.5-50.3c11-12.6,25.7-18.9,44.2-18.9c6,0,12.1,1.1,18.3,3.2v37.9c-5.5-5.5-11.2-8.3-17-8.3
			c-7.6,0-13.5,3.2-17.8,9.6c-4.3,6.5-6.4,15.4-6.4,26.7c0,5.5,0.5,10.4,1.6,14.8c1.1,4.3,2.6,8,4.6,11s4.4,5.3,7.3,6.9
			s6.2,2.4,9.9,2.4C514.4,128.6,520.8,125.7,527.3,119.8z"/>
		<path class="st0" d="M639.4,161.6h-40.1L581,112.7c-0.2-0.8-0.5-1.9-0.9-3.3c-0.5-1.4-1-3-1.6-4.9l0.3,9.1v48h-36.9V24.4h37.9
			c16.7,0,29.2,3.3,37.5,9.9c10.5,8.4,15.8,20.4,15.8,35.9c0,16.6-7.1,28-21.2,34.4L639.4,161.6z M578.9,85.8h2.5
			c4.3,0,7.8-1.6,10.7-4.9c2.8-3.3,4.3-7.4,4.3-12.4c0-10.2-5.4-15.4-16.1-15.4H579v32.7H578.9z"/>
		<path class="st0" d="M750.3,161.6h-38.2l-2.8-17.3h-25l-3,17.3H643l33-137.2h45.3L750.3,161.6z M704.9,115.4l-2.4-16
			c-0.1-0.1-0.2-0.9-0.4-2.4c-0.1-1.3-0.7-6.5-1.9-15.5c-0.1-1-0.3-2.4-0.4-4.1c-0.2-1.7-0.4-3.9-0.7-6.6l-1.1-13
			c-0.1,1.2-0.3,2.6-0.5,4.2c-0.2,1.5-0.4,3.2-0.7,5.1c-0.4,3.7-0.7,6.2-0.9,7.6s-0.3,2.3-0.4,2.6l-2.6,16.6l-3.7,21.5H704.9z"/>
	</g>
</g>
</svg>
